<svg width="20" height="20" viewBox="0 0 20 20" fill="none" xmlns="http://www.w3.org/2000/svg">
<path d="M8.07645 11.4436L8.43042 11.7975L8.78397 11.4431L13.0725 7.1446C13.0727 7.1444 13.0729 7.14419 13.0731 7.14398C13.1668 7.05125 13.2932 6.99921 13.425 6.99921C13.5571 6.99921 13.6838 7.05148 13.7775 7.1446L13.7779 7.145C13.8248 7.19148 13.862 7.24679 13.8874 7.30771C13.9127 7.36864 13.9258 7.43399 13.9258 7.5C13.9258 7.56601 13.9127 7.63136 13.8874 7.69229C13.862 7.75321 13.8248 7.80852 13.7779 7.855L13.7765 7.85645L8.7779 12.855C8.77768 12.8552 8.77746 12.8554 8.77723 12.8557C8.68417 12.9476 8.55876 12.9995 8.4279 13L8.42711 13C8.36131 13.0004 8.29608 12.9878 8.23516 12.9629C8.17463 12.9382 8.11953 12.9018 8.073 12.8559C8.0727 12.8556 8.07241 12.8553 8.07211 12.855L5.72431 10.4972L5.71031 10.4831L5.69523 10.4702C5.64289 10.4254 5.60038 10.3702 5.57037 10.3082C5.54036 10.2462 5.52349 10.1786 5.52083 10.1098C5.51817 10.0409 5.52978 9.97223 5.55491 9.90807C5.58005 9.8439 5.61818 9.78563 5.66691 9.7369C5.71563 9.68818 5.77391 9.65005 5.83807 9.62491C5.90223 9.59977 5.9709 9.58817 6.03976 9.59083C6.10862 9.59349 6.17619 9.61035 6.23822 9.64037C6.30025 9.67038 6.35541 9.71289 6.40023 9.76523L6.41279 9.7799L6.42645 9.79355L8.07645 11.4436ZM4.72209 2.10104C6.28435 1.05717 8.12108 0.5 10 0.5C11.2476 0.5 12.4829 0.745725 13.6355 1.22314C14.7881 1.70056 15.8354 2.40033 16.7175 3.28249C17.5997 4.16464 18.2994 5.21191 18.7769 6.36451C19.2543 7.5171 19.5 8.75244 19.5 10C19.5 11.8789 18.9428 13.7157 17.899 15.2779C16.8551 16.8402 15.3714 18.0578 13.6355 18.7769C11.8996 19.4959 9.98947 19.684 8.14665 19.3175C6.30383 18.9509 4.61109 18.0461 3.28249 16.7175C1.95389 15.3889 1.0491 13.6962 0.682544 11.8534C0.315985 10.0105 0.504116 8.1004 1.22315 6.36451C1.94218 4.62861 3.15982 3.14491 4.72209 2.10104ZM5.27766 17.0675C6.67548 18.0015 8.31886 18.5 10 18.5C12.2543 18.5 14.4164 17.6045 16.0104 16.0104C17.6045 14.4163 18.5 12.2543 18.5 10C18.5 8.31886 18.0015 6.67547 17.0675 5.27765C16.1335 3.87984 14.806 2.79037 13.2528 2.14702C11.6996 1.50368 9.99058 1.33535 8.34174 1.66333C6.6929 1.9913 5.17834 2.80085 3.9896 3.98959C2.80085 5.17834 1.9913 6.69289 1.66333 8.34173C1.33536 9.99057 1.50368 11.6996 2.14703 13.2528C2.79037 14.806 3.87984 16.1335 5.27766 17.0675Z" stroke="white"/>
</svg>
