<svg width="24" height="24" viewBox="0 0 24 24"  xmlns="http://www.w3.org/2000/svg">
<path d="M12.9545 20.5909C12.9545 20.0637 12.5271 19.6363 12 19.6363C11.4728 19.6363 11.0454 20.0637 11.0454 20.5909H12.9545ZM11.0454 22.4999C11.0454 23.0271 11.4728 23.4545 12 23.4545C12.5271 23.4545 12.9545 23.0271 12.9545 22.4999H11.0454ZM18.7458 17.3959C18.3731 17.0231 17.7687 17.0231 17.3959 17.3959C17.0231 17.7687 17.0231 18.3731 17.3959 18.7458L18.7458 17.3959ZM18.7514 20.1013C19.1241 20.474 19.7285 20.474 20.1013 20.1013C20.474 19.7285 20.474 19.1241 20.1013 18.7514L18.7514 20.1013ZM3.89867 18.7514C3.5259 19.1241 3.5259 19.7285 3.89867 20.1013C4.27144 20.474 4.87582 20.474 5.24859 20.1013L3.89867 18.7514ZM6.60404 18.7458C6.97681 18.3731 6.97681 17.7687 6.60404 17.3959C6.23127 17.0231 5.62689 17.0231 5.25412 17.3959L6.60404 18.7458ZM20.5909 11.0454C20.0637 11.0454 19.6363 11.4728 19.6363 12C19.6363 12.5271 20.0637 12.9545 20.5909 12.9545V11.0454ZM22.4999 12.9545C23.0271 12.9545 23.4545 12.5271 23.4545 12C23.4545 11.4728 23.0271 11.0454 22.4999 11.0454V12.9545ZM1.5 11.0454C0.972823 11.0454 0.545461 11.4728 0.545461 12C0.545461 12.5271 0.972823 12.9545 1.5 12.9545V11.0454ZM3.40909 12.9545C3.93626 12.9545 4.36362 12.5271 4.36362 12C4.36362 11.4728 3.93626 11.0454 3.40909 11.0454V12.9545ZM17.3959 5.25412C17.0231 5.62689 17.0231 6.23127 17.3959 6.60404C17.7687 6.97681 18.3731 6.97681 18.7458 6.60404L17.3959 5.25412ZM20.1013 5.24859C20.474 4.87582 20.474 4.27144 20.1013 3.89867C19.7285 3.5259 19.1241 3.5259 18.7514 3.89867L20.1013 5.24859ZM5.24859 3.89867C4.87582 3.5259 4.27144 3.5259 3.89867 3.89867C3.5259 4.27144 3.5259 4.87582 3.89867 5.24859L5.24859 3.89867ZM5.25412 6.60404C5.62689 6.97681 6.23127 6.97681 6.60404 6.60404C6.97681 6.23127 6.97681 5.62689 6.60404 5.25412L5.25412 6.60404ZM12.9545 1.5C12.9545 0.972823 12.5271 0.545461 12 0.545461C11.4728 0.545461 11.0454 0.972823 11.0454 1.5H12.9545ZM11.0454 3.40909C11.0454 3.93626 11.4728 4.36362 12 4.36362C12.5271 4.36362 12.9545 3.93626 12.9545 3.40909H11.0454ZM11.0454 20.5909V22.4999H12.9545V20.5909H11.0454ZM17.3959 18.7458L18.7514 20.1013L20.1013 18.7514L18.7458 17.3959L17.3959 18.7458ZM5.24859 20.1013L6.60404 18.7458L5.25412 17.3959L3.89867 18.7514L5.24859 20.1013ZM20.5909 12.9545H22.4999V11.0454H20.5909V12.9545ZM1.5 12.9545H3.40909V11.0454H1.5V12.9545ZM15.8181 12C15.8181 14.1087 14.1087 15.8181 12 15.8181V17.7272C15.163 17.7272 17.7272 15.163 17.7272 12H15.8181ZM12 15.8181C9.89125 15.8181 8.18179 14.1087 8.18179 12H6.27272C6.27272 15.163 8.83689 17.7272 12 17.7272V15.8181ZM8.18179 12C8.18179 9.89125 9.89125 8.18179 12 8.18179V6.27272C8.83689 6.27272 6.27272 8.83689 6.27272 12H8.18179ZM12 8.18179C14.1087 8.18179 15.8181 9.89125 15.8181 12H17.7272C17.7272 8.83689 15.163 6.27272 12 6.27272V8.18179ZM18.7458 6.60404L20.1013 5.24859L18.7514 3.89867L17.3959 5.25412L18.7458 6.60404ZM3.89867 5.24859L5.25412 6.60404L6.60404 5.25412L5.24859 3.89867L3.89867 5.24859ZM11.0454 1.5V3.40909H12.9545V1.5H11.0454Z" />
</svg>
